<svg width="765" height="157" viewBox="0 0 765 157" fill="none" xmlns="http://www.w3.org/2000/svg">
<path d="M39.9224 0.0507812L73.6249 69.2181L107.768 0.0507812H147.198L91.4675 103.141V156.448H55.5621V102.7L0.712891 0.0507812H39.9224Z" fill="#eee"/>
<path d="M271.674 124.728V156.448H161.755V0.0507812H269.691V31.7708H197.881V62.1692H259.559V91.4662H197.881V124.728H271.674Z" fill="#eee"/>
<path d="M422.483 156.448V53.7986L382.393 130.235H365.431L325.341 53.7986V156.448H294.942V0.0507812H327.544L373.802 89.0431L420.501 0.0507812H452.882V156.448H422.483Z" fill="#eee"/>
<path d="M532.013 0.0507812H555.363L616.16 156.448H590.167L573.646 113.935H513.29L496.989 156.448H470.776L532.013 0.0507812ZM568.8 95.6515L543.688 27.145L517.695 95.6515H568.8Z" fill="#eee"/>
<path d="M684.182 0.0507812H700.924L764.804 156.448H743.658L725.154 110.63H659.511L641.228 156.448H620.082L684.182 0.0507812ZM720.749 95.2109L692.553 22.9597L663.476 95.2109H720.749Z" fill="#eee"/>
</svg>
